<?xml version="1.0" standalone="no"?>
<!DOCTYPE svg PUBLIC "-//W3C//DTD SVG 20010904//EN"
 "http://www.w3.org/TR/2001/REC-SVG-20010904/DTD/svg10.dtd">
<svg version="1.0" xmlns="http://www.w3.org/2000/svg"
 width="1024.000000pt" height="1024.000000pt" viewBox="0 0 1024.000000 1024.000000"
 preserveAspectRatio="xMidYMid meet">
<metadata>
Created by potrace 1.14, written by Peter Selinger 2001-2017
</metadata>
<g transform="translate(0.000000,1024.000000) scale(0.100000,-0.100000)"
fill="#000000" stroke="none">
<path d="M4998 10235 c-1 -1 -47 -6 -101 -10 -53 -3 -107 -8 -120 -10 -12 -2
-47 -6 -78 -10 -31 -3 -67 -8 -80 -10 -13 -3 -40 -7 -59 -10 -19 -3 -45 -7
-56 -9 -12 -2 -39 -7 -60 -10 -22 -4 -46 -8 -54 -11 -8 -2 -28 -7 -45 -10 -16
-3 -39 -8 -50 -10 -11 -3 -30 -7 -41 -9 -91 -18 -490 -141 -509 -156 -5 -5
-13 -9 -17 -9 -24 -4 -93 -31 -196 -78 -40 -18 -84 -36 -98 -39 -13 -3 -24
-10 -24 -15 0 -5 -5 -9 -10 -9 -22 0 -261 -126 -369 -194 -22 -15 -45 -26 -51
-26 -5 0 -10 -3 -10 -7 0 -5 -21 -20 -48 -36 -71 -42 -84 -50 -111 -74 -14
-13 -29 -23 -33 -23 -7 0 -190 -136 -238 -177 -14 -12 -61 -52 -105 -89 -69
-58 -151 -134 -254 -235 -59 -58 -194 -210 -270 -304 -106 -129 -103 -126
-123 -155 -9 -14 -35 -50 -57 -80 -216 -296 -469 -794 -571 -1125 -12 -38 -24
-77 -27 -85 -3 -8 -7 -19 -8 -25 -2 -5 -9 -30 -16 -55 -7 -25 -13 -48 -15 -52
-1 -5 -2 -9 -4 -10 -2 -3 -5 -17 -13 -54 -3 -11 -13 -50 -22 -86 -9 -36 -18
-79 -20 -94 -2 -16 -4 -30 -6 -31 -2 -4 -4 -12 -14 -68 -4 -27 -10 -57 -11
-65 -2 -8 -6 -31 -9 -50 -2 -19 -7 -44 -9 -55 -6 -33 -17 -116 -22 -175 -3
-30 -8 -91 -12 -135 -14 -166 -7 -615 12 -780 2 -16 7 -59 11 -95 4 -36 9 -68
11 -71 2 -3 5 -28 8 -55 6 -53 14 -99 22 -125 2 -9 7 -33 9 -54 3 -20 7 -41
10 -45 3 -4 7 -25 10 -46 4 -22 11 -54 17 -72 5 -18 11 -39 12 -45 16 -73 101
-353 126 -412 5 -11 21 -51 35 -90 56 -148 241 -536 264 -555 3 -3 17 -25 30
-50 13 -25 37 -64 53 -87 15 -23 28 -44 28 -47 0 -2 19 -33 43 -67 23 -34 50
-76 61 -93 10 -17 21 -33 25 -36 4 -3 27 -32 51 -65 40 -55 150 -194 175 -221
5 -6 35 -39 65 -74 58 -66 287 -300 294 -300 2 0 19 -15 38 -33 74 -71 261
-227 272 -227 3 0 14 -8 25 -18 10 -9 32 -28 49 -40 29 -22 30 -25 17 -45 -8
-12 -14 -25 -15 -29 0 -4 -10 -29 -22 -55 -12 -27 -22 -50 -23 -53 -2 -6 -32
-76 -50 -115 -7 -16 -34 -79 -60 -140 -26 -60 -60 -138 -76 -173 -16 -35 -29
-65 -29 -67 0 -3 -153 -357 -194 -450 -8 -16 -28 -64 -46 -105 -40 -92 -58
-133 -80 -185 -10 -22 -28 -62 -40 -90 -12 -27 -28 -65 -37 -84 -8 -18 -16
-39 -18 -45 -1 -6 -17 -42 -34 -81 -64 -140 -71 -155 -71 -161 0 -3 -13 -33
-29 -67 -17 -34 -39 -84 -50 -112 -10 -27 -32 -77 -47 -110 -15 -33 -28 -62
-29 -65 -5 -17 -67 -158 -93 -212 -2 -5 237 -8 530 -8 l533 0 19 48 c11 26 31
72 45 102 13 30 25 57 26 60 5 15 76 181 110 255 8 17 15 37 17 45 2 8 5 17 9
20 3 3 15 30 28 60 45 106 62 145 81 183 11 22 20 43 20 48 0 5 11 32 24 61
65 141 216 494 216 505 0 7 5 13 12 13 6 0 8 3 5 6 -3 4 -1 16 5 28 7 11 13
23 13 26 1 3 13 31 28 64 15 32 27 60 27 62 0 2 16 38 35 80 19 41 35 77 35
79 0 2 10 25 22 52 12 26 22 50 23 53 0 3 11 28 24 56 l23 52 61 -25 c34 -14
72 -29 85 -34 12 -5 32 -13 45 -18 19 -8 123 -43 137 -46 3 -1 32 -10 65 -20
33 -10 65 -20 70 -21 6 -1 37 -10 70 -19 66 -18 159 -41 196 -49 13 -3 49 -10
79 -16 67 -14 85 -17 130 -24 19 -3 46 -8 60 -11 14 -2 45 -7 70 -9 50 -6 127
-15 180 -21 176 -23 602 -23 815 0 28 3 68 8 90 10 22 2 56 6 75 9 19 3 53 8
75 11 92 13 111 16 125 20 8 2 31 7 50 10 19 3 76 15 125 27 50 12 96 21 103
21 6 0 12 4 12 9 0 5 4 7 8 4 5 -3 33 2 63 11 105 31 274 84 289 90 8 3 20 7
25 8 6 2 52 19 103 40 51 20 99 35 105 32 7 -2 21 -29 31 -58 10 -30 22 -58
26 -64 4 -5 27 -55 50 -110 23 -55 50 -118 60 -140 10 -22 33 -74 50 -115 18
-41 46 -103 61 -138 16 -35 29 -65 29 -67 0 -2 12 -30 26 -62 42 -93 84 -190
89 -203 4 -10 24 -57 54 -122 16 -38 27 -68 24 -68 -3 0 1 -8 9 -17 9 -10 19
-29 23 -43 4 -14 19 -50 33 -80 13 -30 30 -68 37 -85 8 -16 37 -84 65 -150 29
-66 63 -144 76 -173 13 -29 24 -55 24 -57 0 -2 13 -32 29 -67 16 -35 34 -78
41 -95 l12 -33 529 0 c291 0 529 2 529 4 0 6 -120 281 -134 306 -8 14 -15 28
-15 33 -1 8 -18 49 -49 117 -17 39 -31 73 -37 90 -1 3 -12 28 -24 55 -12 28
-43 97 -68 155 -25 58 -53 123 -63 145 -10 22 -32 74 -50 115 -18 41 -40 93
-50 115 -10 22 -39 90 -65 150 -26 61 -55 128 -65 150 -9 22 -37 85 -60 140
-24 55 -55 127 -70 160 -41 90 -50 112 -150 345 -51 118 -103 239 -116 268
-13 29 -24 57 -24 62 0 6 -5 10 -11 10 -17 0 0 19 40 45 21 13 44 29 52 37 8
7 30 25 49 38 19 13 40 29 45 35 6 7 37 34 70 61 131 108 346 317 466 454 69
78 216 263 259 325 14 20 30 42 35 48 6 7 26 37 45 67 19 30 37 57 40 60 12
10 140 228 140 238 0 6 4 12 9 14 14 5 184 359 240 498 38 97 46 126 36 130
-11 4 -1048 5 -1077 1 -5 -1 -8 -5 -8 -11 0 -5 -23 -52 -52 -102 -28 -51 -56
-103 -62 -115 -6 -13 -14 -23 -18 -23 -5 0 -8 -5 -8 -10 0 -18 -217 -331 -249
-360 -3 -3 -33 -36 -65 -75 -70 -81 -254 -267 -341 -342 l-59 -52 -54 122
c-30 67 -54 128 -55 135 0 6 -4 12 -9 12 -4 0 -7 3 -6 8 1 4 -6 25 -16 47 -10
22 -26 58 -36 80 -38 87 -49 112 -74 168 -14 32 -26 60 -26 62 0 3 -9 24 -19
48 -11 23 -36 80 -56 127 -20 47 -45 103 -55 125 -10 22 -30 68 -44 103 -15
34 -40 92 -56 128 -17 35 -30 67 -30 69 0 2 -11 28 -24 57 -13 29 -39 87 -56
128 -18 41 -42 95 -52 120 -11 25 -27 61 -35 80 -9 19 -21 49 -29 66 -7 16
-30 68 -50 115 -20 46 -43 100 -52 119 -9 19 -16 37 -16 40 -1 3 -9 21 -18 40
-16 33 -39 89 -43 100 -1 3 -8 21 -17 40 -9 19 -30 69 -48 110 -18 41 -38 89
-45 105 -87 195 -115 261 -115 272 0 7 -4 13 -10 13 -5 0 -9 3 -8 8 1 4 -6 25
-16 47 -10 22 -21 49 -26 61 -4 11 -47 110 -95 220 -86 199 -95 218 -134 306
-12 27 -26 59 -31 73 -5 14 -17 25 -27 26 -108 4 -1246 0 -1250 -5 -4 -4 -8
-12 -9 -19 -1 -7 -14 -39 -29 -72 -30 -65 -30 -65 -105 -240 -28 -66 -61 -140
-72 -165 -32 -72 -46 -103 -62 -140 -18 -42 -180 -418 -202 -469 -9 -20 -24
-54 -34 -76 -22 -48 -74 -170 -91 -211 -7 -16 -12 -32 -11 -36 1 -5 -3 -8 -10
-8 -6 0 -9 -2 -6 -6 3 -3 -7 -32 -23 -65 -16 -32 -29 -62 -29 -65 0 -3 -10
-26 -21 -52 -12 -26 -43 -96 -69 -157 -26 -60 -59 -135 -72 -165 -14 -30 -45
-102 -69 -160 -24 -58 -47 -108 -52 -111 -5 -3 -8 -8 -7 -10 3 -7 -70 -182
-138 -329 -13 -30 -25 -61 -25 -67 0 -7 -3 -13 -7 -13 -3 0 -12 -17 -19 -37
-8 -21 -29 -71 -47 -111 -19 -40 -37 -84 -40 -98 -3 -13 -10 -27 -15 -30 -5
-3 -9 -14 -9 -25 0 -10 -4 -19 -10 -19 -5 0 -10 -6 -10 -14 0 -7 -12 -40 -27
-72 -15 -33 -28 -61 -29 -64 -1 -7 -33 -80 -52 -120 -9 -19 -17 -37 -17 -40 0
-3 -12 -28 -25 -57 l-25 -52 -64 57 c-56 49 -277 269 -315 312 -107 123 -256
321 -256 339 0 5 -4 11 -9 13 -25 9 -240 402 -298 544 -29 70 -36 89 -37 94
-1 3 -4 10 -7 15 -6 9 -31 80 -35 98 -1 4 -3 9 -4 12 -1 3 -3 8 -4 13 -11 42
-31 100 -39 110 -5 7 -7 15 -4 18 3 4 -2 27 -12 53 -11 25 -19 49 -19 54 -1 6
-10 59 -17 97 -2 8 -9 38 -15 65 -13 56 -14 62 -29 160 -26 178 -35 299 -35
505 0 140 9 316 18 366 2 10 7 46 10 79 7 60 13 100 16 100 1 0 3 18 6 40 3
22 9 54 15 71 5 17 12 46 14 65 3 19 12 59 20 89 9 30 18 69 21 85 3 17 11 36
16 43 6 6 8 12 5 12 -3 0 10 44 29 98 19 53 36 102 38 107 10 34 68 169 102
242 19 39 34 76 34 81 0 6 3 12 8 14 4 2 17 23 30 48 13 25 37 68 53 95 16 28
33 57 36 65 4 8 11 20 15 25 4 6 36 53 71 106 56 84 87 128 134 189 102 132
282 324 433 459 117 105 326 256 497 359 104 62 352 186 413 207 13 4 69 27
100 41 20 8 42 16 50 18 8 2 22 6 30 9 95 36 362 109 450 122 24 4 47 8 50 10
3 2 26 6 50 9 25 3 56 8 70 10 236 40 675 41 920 1 19 -3 53 -8 76 -11 22 -3
81 -14 130 -25 49 -10 100 -21 114 -24 14 -2 41 -9 60 -15 19 -6 47 -14 62
-16 40 -7 307 -100 378 -131 119 -52 330 -160 411 -208 112 -68 283 -185 287
-197 2 -4 8 -8 14 -8 5 0 15 -6 22 -12 7 -7 28 -24 47 -38 129 -96 382 -345
493 -485 22 -28 46 -56 55 -62 8 -7 12 -13 8 -13 -6 0 -2 -6 50 -68 13 -15 23
-30 23 -34 0 -4 6 -13 13 -20 7 -7 28 -37 46 -66 19 -30 39 -59 45 -65 12 -13
29 -43 117 -203 l61 -112 544 0 c299 1 544 1 544 2 0 9 -89 225 -129 314 -71
155 -202 407 -221 422 -4 3 -9 13 -13 23 -9 24 -192 297 -217 325 -11 11 -20
25 -20 29 0 4 -12 22 -28 38 -15 17 -40 48 -57 70 -30 40 -58 74 -105 127 -14
15 -50 55 -80 89 -174 196 -391 392 -615 558 -38 28 -75 56 -82 61 -6 5 -60
41 -120 80 -59 38 -113 75 -120 80 -7 6 -14 10 -17 10 -2 0 -49 26 -103 58
-109 64 -427 222 -446 222 -3 0 -22 8 -43 17 -22 9 -41 17 -44 18 -10 3 -45
17 -75 30 -39 17 -244 86 -271 91 -12 2 -40 10 -63 19 -23 8 -43 14 -46 15 -3
0 -6 0 -7 1 -11 3 -39 10 -73 18 -22 5 -49 12 -60 15 -33 8 -277 57 -310 61
-16 3 -48 7 -69 11 -21 3 -53 8 -70 10 -17 1 -58 6 -91 9 -33 4 -76 9 -95 11
-41 6 -606 14 -612 9z m272 -4511 c0 -6 6 -24 14 -40 8 -16 38 -83 66 -149 29
-66 62 -142 75 -170 12 -27 28 -67 36 -87 7 -21 17 -38 22 -38 4 0 6 -4 2 -9
-3 -5 -1 -12 5 -16 5 -3 10 -12 10 -19 0 -7 17 -49 37 -92 20 -43 37 -81 38
-84 0 -4 45 -107 105 -245 10 -22 64 -146 120 -275 56 -129 108 -248 115 -265
7 -16 46 -104 85 -195 39 -91 77 -178 84 -195 8 -16 28 -64 46 -105 18 -41 40
-93 50 -115 10 -22 32 -74 50 -115 18 -41 38 -88 45 -105 7 -16 25 -57 40 -90
15 -33 33 -73 40 -90 44 -105 70 -166 88 -205 12 -25 21 -47 22 -50 1 -3 9
-22 18 -44 9 -21 15 -42 12 -46 -11 -18 -363 -137 -455 -154 -14 -2 -54 -11
-90 -20 -61 -14 -79 -18 -162 -31 -18 -3 -40 -8 -48 -10 -18 -5 -131 -17 -177
-19 -18 0 -33 -3 -33 -7 0 -8 -543 -3 -610 6 -30 4 -66 8 -80 9 -24 2 -103 14
-145 21 -139 24 -365 79 -396 95 -10 6 -19 8 -19 6 0 -6 -166 50 -192 64 -10
6 -26 10 -35 10 -10 0 -28 8 -40 18 -21 17 -21 17 -3 57 31 68 66 148 90 205
13 30 33 78 46 107 13 28 24 54 24 56 0 2 17 40 37 83 20 43 38 84 39 89 2 9
89 211 129 300 7 17 28 64 45 105 18 41 41 95 52 120 11 25 26 59 33 75 8 17
24 53 36 80 13 28 23 52 24 55 1 3 8 21 17 40 8 19 34 80 58 135 23 55 55 128
71 163 16 34 29 65 29 67 0 2 12 30 26 62 41 94 51 115 75 173 13 30 28 58 33
62 6 4 8 8 4 8 -6 0 90 233 112 272 6 10 10 25 10 33 0 8 4 15 8 15 6 0 30 51
37 80 1 3 11 27 23 53 12 27 22 50 22 52 0 2 14 34 31 72 17 37 39 86 49 108
9 22 26 60 37 85 11 25 24 55 28 68 6 22 7 22 21 5 7 -10 14 -23 14 -29z"/>
</g>
</svg>
